# xmcd CD database file
#
# Track frame offsets:
#	150
#	13853
#	49364
#	68057
#	106408
#	132482
#	152674
#	205869
#
# Disc length: 2955 seconds
#
# Revision: 0
# Processed by: cddbd v1.5.2PL0 Copyright (c) Steve Scherf et al.
# Submitted via: CDex 1.51
#
DISCID=6f0b8908
DTITLE=Spiritus Mortis - The God Behind The God
DYEAR=2009
DGENRE=Doom Metal
TTITLE0=The Man Of Steel
TTITLE1=Death Bride
TTITLE2=The Rotting Trophy
TTITLE3=Curved Horizon
TTITLE4=When The Wind Howled With A Human Voice
TTITLE5=Heavy Drinker
TTITLE6=The God Behind The God
TTITLE7=Perpetual Motion
EXTD=YEAR: 2009
EXTT0=
EXTT1=
EXTT2=
EXTT3=
EXTT4=
EXTT5=
EXTT6=
EXTT7=
PLAYORDER=
